<svg width="136" height="32" viewBox="0 0 136 32" fill="none" xmlns="http://www.w3.org/2000/svg">
<rect width="32" height="32" rx="3.65714" fill="#90CAF9"/>
<circle cx="10.103" cy="10.1017" r="5.53143" fill="#002766"/>
<path d="M16.3657 10.1017C16.3657 7.04682 18.8422 4.57031 21.8972 4.57031V4.57031C24.9521 4.57031 27.4286 7.04682 27.4286 10.1017V10.1017C27.4286 13.1567 24.9521 15.6332 21.8972 15.6332H16.3657V10.1017Z" fill="#002766"/>
<path d="M4.57153 21.8947C4.57153 18.8398 7.04804 16.3633 10.103 16.3633H15.6344V21.8947C15.6344 24.9496 13.1579 27.4261 10.103 27.4261V27.4261C7.04804 27.4261 4.57153 24.9496 4.57153 21.8947V21.8947Z" fill="#002766"/>
<circle cx="21.8972" cy="21.8947" r="5.53143" fill="#002766"/>
<path d="M46.8945 17.4238H43.0957V15.8906H46.8945C47.6302 15.8906 48.2259 15.7734 48.6816 15.5391C49.1374 15.3047 49.4694 14.9792 49.6777 14.5625C49.8926 14.1458 50 13.6706 50 13.1367C50 12.6484 49.8926 12.1895 49.6777 11.7598C49.4694 11.3301 49.1374 10.985 48.6816 10.7246C48.2259 10.4577 47.6302 10.3242 46.8945 10.3242H43.5352V23H41.6504V8.78125H46.8945C47.9688 8.78125 48.877 8.9668 49.6191 9.33789C50.3613 9.70898 50.9245 10.2233 51.3086 10.8809C51.6927 11.5319 51.8848 12.2773 51.8848 13.1172C51.8848 14.0286 51.6927 14.8066 51.3086 15.4512C50.9245 16.0957 50.3613 16.5872 49.6191 16.9258C48.877 17.2578 47.9688 17.4238 46.8945 17.4238ZM56.0508 14.0938V23H54.2441V12.4336H56.002L56.0508 14.0938ZM59.3516 12.375L59.3418 14.0547C59.1921 14.0221 59.0488 14.0026 58.9121 13.9961C58.7819 13.9831 58.6322 13.9766 58.4629 13.9766C58.0462 13.9766 57.6784 14.0417 57.3594 14.1719C57.0404 14.3021 56.7702 14.4844 56.5488 14.7188C56.3275 14.9531 56.1517 15.2331 56.0215 15.5586C55.8978 15.8776 55.8164 16.2292 55.7773 16.6133L55.2695 16.9062C55.2695 16.2682 55.3314 15.6693 55.4551 15.1094C55.5853 14.5495 55.7839 14.0547 56.0508 13.625C56.3177 13.1888 56.6562 12.8503 57.0664 12.6094C57.4831 12.362 57.9779 12.2383 58.5508 12.2383C58.681 12.2383 58.8307 12.2546 59 12.2871C59.1693 12.3132 59.2865 12.3424 59.3516 12.375ZM60.5977 17.834V17.6094C60.5977 16.8477 60.7083 16.1413 60.9297 15.4902C61.151 14.8327 61.4701 14.263 61.8867 13.7812C62.3034 13.293 62.8079 12.9154 63.4004 12.6484C63.9928 12.375 64.6569 12.2383 65.3926 12.2383C66.1348 12.2383 66.8021 12.375 67.3945 12.6484C67.9935 12.9154 68.5013 13.293 68.918 13.7812C69.3411 14.263 69.6634 14.8327 69.8848 15.4902C70.1061 16.1413 70.2168 16.8477 70.2168 17.6094V17.834C70.2168 18.5957 70.1061 19.3021 69.8848 19.9531C69.6634 20.6042 69.3411 21.1738 68.918 21.6621C68.5013 22.1439 67.9967 22.5215 67.4043 22.7949C66.8184 23.0618 66.1543 23.1953 65.4121 23.1953C64.6699 23.1953 64.0026 23.0618 63.4102 22.7949C62.8177 22.5215 62.3099 22.1439 61.8867 21.6621C61.4701 21.1738 61.151 20.6042 60.9297 19.9531C60.7083 19.3021 60.5977 18.5957 60.5977 17.834ZM62.4043 17.6094V17.834C62.4043 18.3613 62.4661 18.8594 62.5898 19.3281C62.7135 19.7904 62.8991 20.2005 63.1465 20.5586C63.4004 20.9167 63.7161 21.1999 64.0938 21.4082C64.4714 21.61 64.9108 21.7109 65.4121 21.7109C65.9069 21.7109 66.3398 21.61 66.7109 21.4082C67.0885 21.1999 67.401 20.9167 67.6484 20.5586C67.8958 20.2005 68.0814 19.7904 68.2051 19.3281C68.3353 18.8594 68.4004 18.3613 68.4004 17.834V17.6094C68.4004 17.0885 68.3353 16.597 68.2051 16.1348C68.0814 15.666 67.8926 15.2526 67.6387 14.8945C67.3913 14.5299 67.0788 14.2435 66.7012 14.0352C66.3301 13.8268 65.8939 13.7227 65.3926 13.7227C64.8978 13.7227 64.4616 13.8268 64.084 14.0352C63.7129 14.2435 63.4004 14.5299 63.1465 14.8945C62.8991 15.2526 62.7135 15.666 62.5898 16.1348C62.4661 16.597 62.4043 17.0885 62.4043 17.6094ZM81.6289 21.4668V23H74.5195V21.4668H81.6289ZM74.8906 8.78125V23H73.0059V8.78125H74.8906ZM83.2852 17.834V17.6094C83.2852 16.8477 83.3958 16.1413 83.6172 15.4902C83.8385 14.8327 84.1576 14.263 84.5742 13.7812C84.9909 13.293 85.4954 12.9154 86.0879 12.6484C86.6803 12.375 87.3444 12.2383 88.0801 12.2383C88.8223 12.2383 89.4896 12.375 90.082 12.6484C90.681 12.9154 91.1888 13.293 91.6055 13.7812C92.0286 14.263 92.3509 14.8327 92.5723 15.4902C92.7936 16.1413 92.9043 16.8477 92.9043 17.6094V17.834C92.9043 18.5957 92.7936 19.3021 92.5723 19.9531C92.3509 20.6042 92.0286 21.1738 91.6055 21.6621C91.1888 22.1439 90.6842 22.5215 90.0918 22.7949C89.5059 23.0618 88.8418 23.1953 88.0996 23.1953C87.3574 23.1953 86.6901 23.0618 86.0977 22.7949C85.5052 22.5215 84.9974 22.1439 84.5742 21.6621C84.1576 21.1738 83.8385 20.6042 83.6172 19.9531C83.3958 19.3021 83.2852 18.5957 83.2852 17.834ZM85.0918 17.6094V17.834C85.0918 18.3613 85.1536 18.8594 85.2773 19.3281C85.401 19.7904 85.5866 20.2005 85.834 20.5586C86.0879 20.9167 86.4036 21.1999 86.7812 21.4082C87.1589 21.61 87.5983 21.7109 88.0996 21.7109C88.5944 21.7109 89.0273 21.61 89.3984 21.4082C89.776 21.1999 90.0885 20.9167 90.3359 20.5586C90.5833 20.2005 90.7689 19.7904 90.8926 19.3281C91.0228 18.8594 91.0879 18.3613 91.0879 17.834V17.6094C91.0879 17.0885 91.0228 16.597 90.8926 16.1348C90.7689 15.666 90.5801 15.2526 90.3262 14.8945C90.0788 14.5299 89.7663 14.2435 89.3887 14.0352C89.0176 13.8268 88.5814 13.7227 88.0801 13.7227C87.5853 13.7227 87.1491 13.8268 86.7715 14.0352C86.4004 14.2435 86.0879 14.5299 85.834 14.8945C85.5866 15.2526 85.401 15.666 85.2773 16.1348C85.1536 16.597 85.0918 17.0885 85.0918 17.6094ZM98.2324 21.9062L101.172 12.4336H103.105L98.8672 24.6309C98.7695 24.8913 98.6393 25.1712 98.4766 25.4707C98.3203 25.7767 98.1185 26.0664 97.8711 26.3398C97.6237 26.6133 97.3242 26.8346 96.9727 27.0039C96.6276 27.1797 96.2142 27.2676 95.7324 27.2676C95.5892 27.2676 95.4069 27.248 95.1855 27.209C94.9642 27.1699 94.8079 27.1374 94.7168 27.1113L94.707 25.6465C94.7591 25.653 94.8405 25.6595 94.9512 25.666C95.0684 25.679 95.1497 25.6855 95.1953 25.6855C95.6055 25.6855 95.9538 25.6302 96.2402 25.5195C96.5267 25.4154 96.7676 25.2363 96.9629 24.9824C97.1647 24.735 97.3372 24.3932 97.4805 23.957L98.2324 21.9062ZM96.0742 12.4336L98.8184 20.6367L99.2871 22.541L97.9883 23.2051L94.1016 12.4336H96.0742ZM111.061 21.1934V15.7539C111.061 15.3372 110.976 14.9759 110.807 14.6699C110.644 14.3574 110.396 14.1165 110.064 13.9473C109.732 13.778 109.322 13.6934 108.834 13.6934C108.378 13.6934 107.978 13.7715 107.633 13.9277C107.294 14.084 107.027 14.2891 106.832 14.543C106.643 14.7969 106.549 15.0703 106.549 15.3633H104.742C104.742 14.9857 104.84 14.6113 105.035 14.2402C105.23 13.8691 105.51 13.5339 105.875 13.2344C106.246 12.9284 106.689 12.6875 107.203 12.5117C107.724 12.3294 108.303 12.2383 108.941 12.2383C109.71 12.2383 110.387 12.3685 110.973 12.6289C111.565 12.8893 112.027 13.2832 112.359 13.8105C112.698 14.3314 112.867 14.9857 112.867 15.7734V20.6953C112.867 21.0469 112.896 21.4212 112.955 21.8184C113.02 22.2155 113.115 22.5573 113.238 22.8438V23H111.354C111.262 22.7917 111.191 22.515 111.139 22.1699C111.087 21.8184 111.061 21.4928 111.061 21.1934ZM111.373 16.5938L111.393 17.8633H109.566C109.052 17.8633 108.593 17.9056 108.189 17.9902C107.786 18.0684 107.447 18.1888 107.174 18.3516C106.9 18.5143 106.692 18.7194 106.549 18.9668C106.406 19.2077 106.334 19.4909 106.334 19.8164C106.334 20.1484 106.409 20.4512 106.559 20.7246C106.708 20.998 106.933 21.2161 107.232 21.3789C107.538 21.5352 107.913 21.6133 108.355 21.6133C108.909 21.6133 109.397 21.4961 109.82 21.2617C110.243 21.0273 110.579 20.7409 110.826 20.4023C111.08 20.0638 111.217 19.735 111.236 19.416L112.008 20.2852C111.962 20.5586 111.839 20.8613 111.637 21.1934C111.435 21.5254 111.165 21.8444 110.826 22.1504C110.494 22.4499 110.097 22.7005 109.635 22.9023C109.179 23.0977 108.665 23.1953 108.092 23.1953C107.376 23.1953 106.747 23.0553 106.207 22.7754C105.673 22.4954 105.257 22.1211 104.957 21.6523C104.664 21.1771 104.518 20.6465 104.518 20.0605C104.518 19.4941 104.628 18.9961 104.85 18.5664C105.071 18.1302 105.39 17.7689 105.807 17.4824C106.223 17.1895 106.725 16.9681 107.311 16.8184C107.896 16.6686 108.551 16.5938 109.273 16.5938H111.373ZM117.922 8V23H116.105V8H117.922ZM125.496 12.4336V13.8203H119.783V12.4336H125.496ZM121.717 9.86523H123.523V20.3828C123.523 20.7409 123.579 21.0111 123.689 21.1934C123.8 21.3757 123.943 21.4961 124.119 21.5547C124.295 21.6133 124.484 21.6426 124.686 21.6426C124.835 21.6426 124.992 21.6296 125.154 21.6035C125.324 21.571 125.451 21.5449 125.535 21.5254L125.545 23C125.402 23.0456 125.213 23.0879 124.979 23.127C124.751 23.1725 124.474 23.1953 124.148 23.1953C123.706 23.1953 123.299 23.1074 122.928 22.9316C122.557 22.7559 122.26 22.4629 122.039 22.0527C121.824 21.6361 121.717 21.0762 121.717 20.373V9.86523ZM130.834 21.9062L133.773 12.4336H135.707L131.469 24.6309C131.371 24.8913 131.241 25.1712 131.078 25.4707C130.922 25.7767 130.72 26.0664 130.473 26.3398C130.225 26.6133 129.926 26.8346 129.574 27.0039C129.229 27.1797 128.816 27.2676 128.334 27.2676C128.191 27.2676 128.008 27.248 127.787 27.209C127.566 27.1699 127.41 27.1374 127.318 27.1113L127.309 25.6465C127.361 25.653 127.442 25.6595 127.553 25.666C127.67 25.679 127.751 25.6855 127.797 25.6855C128.207 25.6855 128.555 25.6302 128.842 25.5195C129.128 25.4154 129.369 25.2363 129.564 24.9824C129.766 24.735 129.939 24.3932 130.082 23.957L130.834 21.9062ZM128.676 12.4336L131.42 20.6367L131.889 22.541L130.59 23.2051L126.703 12.4336H128.676Z" fill="#1A237E"/>
</svg>
